<svg xmlns="http://www.w3.org/2000/svg" viewBox="0 0 100 120" fill="none">
  <style>
    .pumpkin { fill: #000; }
    @media (prefers-color-scheme: dark) {
      .pumpkin { fill: #FFF; }
    }
  </style>
  
  <!-- Tallo -->
  <path class="pumpkin" d="M50 5 C48 3, 46 4, 45 6 L45 8 C45 10, 47 12, 50 12 C53 12, 55 10, 55 8 L55 6 C54 4, 52 3, 50 5 Z"/>
  
  <!-- Mitad superior - Segmentos tradicionales -->
  <path class="pumpkin" d="M50 12 Q45 15, 40 25 Q35 35, 32 45 Q30 50, 30 55" stroke="currentColor" stroke-width="1.5" fill="none"/>
  <path class="pumpkin" d="M50 12 Q48 15, 46 25 Q44 35, 43 45 Q42 50, 42 55" stroke="currentColor" stroke-width="1.5" fill="none"/>
  <path class="pumpkin" d="M50 12 Q52 15, 54 25 Q56 35, 57 45 Q58 50, 58 55" stroke="currentColor" stroke-width="1.5" fill="none"/>
  <path class="pumpkin" d="M50 12 Q55 15, 60 25 Q65 35, 68 45 Q70 50, 70 55" stroke="currentColor" stroke-width="1.5" fill="none"/>
  
  <!-- Cuerpo de la calabaza - Mitad superior -->
  <ellipse class="pumpkin" cx="50" cy="55" rx="40" ry="25" opacity="0.95"/>
  
  <!-- Patrón hexagonal - Mitad inferior -->
  <!-- Hexágono central -->
  <path class="pumpkin" d="M50 60 L55 63 L55 68 L50 71 L45 68 L45 63 Z" opacity="0.9"/>
  
  <!-- Hexágonos laterales izquierdos -->
  <path class="pumpkin" d="M35 65 L40 68 L40 73 L35 76 L30 73 L30 68 Z" opacity="0.9"/>
  <path class="pumpkin" d="M30 75 L35 78 L35 83 L30 86 L25 83 L25 78 Z" opacity="0.9"/>
  
  <!-- Hexágonos laterales derechos -->
  <path class="pumpkin" d="M65 65 L70 68 L70 73 L65 76 L60 73 L60 68 Z" opacity="0.9"/>
  <path class="pumpkin" d="M70 75 L75 78 L75 83 L70 86 L65 83 L65 78 Z" opacity="0.9"/>
  
  <!-- Hexágonos inferiores -->
  <path class="pumpkin" d="M42 75 L47 78 L47 83 L42 86 L37 83 L37 78 Z" opacity="0.9"/>
  <path class="pumpkin" d="M58 75 L63 78 L63 83 L58 86 L53 83 L53 78 Z" opacity="0.9"/>
  
  <!-- Hexágono inferior central -->
  <path class="pumpkin" d="M46 85 L51 88 L51 93 L46 96 L41 93 L41 88 Z" opacity="0.9"/>
  <path class="pumpkin" d="M54 85 L59 88 L59 93 L54 96 L49 93 L49 88 Z" opacity="0.9"/>
  
  <!-- Mitad inferior - Base de la calabaza -->
  <ellipse class="pumpkin" cx="50" cy="90" rx="38" ry="20" opacity="0.85"/>
</svg>
