<svg xmlns="http://www.w3.org/2000/svg" id="Layer_1" version="1.1" viewBox="0 0 224 150"><defs><style>.st0{fill:#fff}</style></defs><g id="GTA_Stack"><path id="O" d="M154.7 93.5c0-2.4-1.5-4.6-4.3-4.6h-10.8c-2.7 0-4.3 2.1-4.3 4.6v19.4c0 2.1 1.6 4.3 4.3 4.3h10.9c2.1 0 4.2-1.7 4.2-4.3V93.5Zm-8.6 16.7H144V96h2.1v14.2Z" class="st0"/><path id="T" d="M122.5 88.9h-8.6v1.9h-1.6v7h1.6V113c0 2.3 1.8 4.3 4.3 4.3H129c2.4 0 4.3-1.8 4.3-4.3V99.6h-8.6v10.6h-2.1V97.8h10.8v-7h-10.8v-1.9Z" class="st0"/><path id="U" d="M102 110.2h-2.1V88.9h-8.6v24c0 2.1 1.7 4.3 4.3 4.3h10.9c2.3 0 4.2-2.1 4.2-4.3v-24h-8.6v21.3Z" class="st0"/><path id="A" d="M84.7 88.9H73.9c-2.2 0-4.3 1.7-4.3 4.6v4.2h8.6v-1.8h2.1v3.6h-6.4c-2.6 0-4.3 2.1-4.3 4.6v8.8c0 2.5 1.9 4.3 4.3 4.3H89V93.5c0-2.6-1.8-4.6-4.3-4.6Zm-4.3 21.3h-2.1v-3.6h2.1v3.6Z" class="st0"/><path id="T1" d="M182.2 82.5V70.9h-8.6v8.9h-2.1V69.1h10.8v-7h-10.8v-3.3h-8.6v3.3h-1.7v7h1.7v13.3c0 2 1.6 4.3 4.3 4.3H178c2.7 0 4.3-2.2 4.3-4.3Z" class="st0"/><path id="F" d="M144.5 58.9c-2.2 0-4.3 1.8-4.3 4.3v23.6h8.7V74.6h10.7v-7h-10.7v-1.7h10.7v-7h-15.1Z" class="st0"/><path id="E" d="M138.1 82.5v-4.4h-8.7v1.7h-2.1v-3.5h10.8V63.2c0-2.6-2.3-4.3-4.3-4.3H123c-2.5 0-4.3 2.1-4.3 4.3v19.3c0 2.3 1.7 4.3 4.3 4.3h10.8c2.1 0 4.3-1.6 4.3-4.3Zm-10.9-16.7h2.1v3.5h-2.1v-3.5Z" class="st0"/><path id="T2" d="M94.9 82.5V70.9h-8.6v8.9h-2.1V69.1H95v-7H84.2v-3.3h-8.6v3.3h-1.7v7h1.7v13.3c0 2.1 1.7 4.3 4.3 4.3h10.8c2.6 0 4.3-2.1 4.3-4.3Z" class="st0"/><path id="D" d="M150.9 17.3v7h-6.4c-2 0-4.3 1.6-4.3 4.3v19.2c0 2.5 2 4.3 4.3 4.3h15.1V17.3H151Zm0 27.8h-2.1v-14h2.1v14Z" class="st0"/><path id="N" d="M138 28.6c0-2.1-1.7-4.3-4.3-4.3s-5.1.6-6.4 1.7v-1.7h-8.6v27.8h8.6v-21h2.1v21h8.7V28.6Z" class="st0"/><path id="A1" d="M116.4 28.6c0-2.8-2.3-4.3-4.3-4.3h-10.8c-2.7 0-4.3 2.2-4.3 4.3v4.3h8.6v-1.8h2.1v3.5h-6.4c-2.4 0-4.3 2-4.3 4.3v8.8c0 2.5 2 4.3 4.3 4.3h15.1V28.5Zm-8.6 16.5h-2.1v-3.5h2.1v3.5Z" class="st0"/><path id="R__x2F__H" d="M112.2 58.8h-6.5V54H94.9V41.6c0-1.4-.7-2.7-1.8-3.5 1.6-1.1 1.8-2.5 1.8-3.4v-6.1c0-2.4-1.9-4.3-4.3-4.3H75.5v32.3h8.6v-15h2.1v12.9c0 2.2 1.7 4.3 4.5 4.3H97v27.9h8.6v-21h2.1v21h8.7V63.1c0-2.4-1.9-4.3-4.3-4.3ZM86.3 34.6h-2.1v-3.5h2.1v3.5Z" class="st0"/><path id="G" d="M73.3 56.6V24.3H58.2c-2.3 0-4.3 1.9-4.3 4.3v19.2c0 2.3 1.8 4.3 4.3 4.3h6.4V54H53.8v6.9h15.1c2.5 0 4.3-2.1 4.3-4.3Zm-8.6-11.5h-2.1v-14h2.1v14Z" class="st0"/></g></svg>