<svg xmlns="http://www.w3.org/2000/svg" viewBox="0 0 200 240" fill="none" aria-hidden="true">
  <!-- Tallo -->
  <path d="M100 10 C96 6, 92 8, 90 12 L90 16 C90 20, 94 24, 100 24 C106 24, 110 20, 110 16 L110 12 C108 8, 104 6, 100 10 Z" fill="currentColor"/>
  
  <!-- Mitad superior - Segmentos tradicionales -->
  <path d="M100 24 Q90 30, 80 50 Q70 70, 64 90 Q60 100, 60 110" stroke="currentColor" stroke-width="3" fill="none"/>
  <path d="M100 24 Q96 30, 92 50 Q88 70, 86 90 Q84 100, 84 110" stroke="currentColor" stroke-width="3" fill="none"/>
  <path d="M100 24 Q104 30, 108 50 Q112 70, 114 90 Q116 100, 116 110" stroke="currentColor" stroke-width="3" fill="none"/>
  <path d="M100 24 Q110 30, 120 50 Q130 70, 136 90 Q140 100, 140 110" stroke="currentColor" stroke-width="3" fill="none"/>
  
  <!-- Cuerpo de la calabaza - Mitad superior -->
  <ellipse cx="100" cy="110" rx="80" ry="50" fill="currentColor" opacity="0.95"/>
  
  <!-- Patrón hexagonal - Mitad inferior -->
  <!-- Hexágono central -->
  <path d="M100 120 L110 126 L110 136 L100 142 L90 136 L90 126 Z" fill="currentColor" opacity="0.9"/>
  
  <!-- Hexágonos laterales izquierdos -->
  <path d="M70 130 L80 136 L80 146 L70 152 L60 146 L60 136 Z" fill="currentColor" opacity="0.9"/>
  <path d="M60 150 L70 156 L70 166 L60 172 L50 166 L50 156 Z" fill="currentColor" opacity="0.9"/>
  
  <!-- Hexágonos laterales derechos -->
  <path d="M130 130 L140 136 L140 146 L130 152 L120 146 L120 136 Z" fill="currentColor" opacity="0.9"/>
  <path d="M140 150 L150 156 L150 166 L140 172 L130 166 L130 156 Z" fill="currentColor" opacity="0.9"/>
  
  <!-- Hexágonos inferiores -->
  <path d="M84 150 L94 156 L94 166 L84 172 L74 166 L74 156 Z" fill="currentColor" opacity="0.9"/>
  <path d="M116 150 L126 156 L126 166 L116 172 L106 166 L106 156 Z" fill="currentColor" opacity="0.9"/>
  
  <!-- Hexágonos inferiores centrales -->
  <path d="M92 170 L102 176 L102 186 L92 192 L82 186 L82 176 Z" fill="currentColor" opacity="0.9"/>
  <path d="M108 170 L118 176 L118 186 L108 192 L98 186 L98 176 Z" fill="currentColor" opacity="0.9"/>
  
  <!-- Mitad inferior - Base de la calabaza -->
  <ellipse cx="100" cy="180" rx="76" ry="40" fill="currentColor" opacity="0.85"/>
</svg>
